<?xml version="1.0" encoding="UTF-8" standalone="no"?>
<!-- Created with Inkscape (http://www.inkscape.org/) -->

<svg
   viewBox="0 0 40 40"
   version="1.1"
   id="svg1"
   xmlns="http://www.w3.org/2000/svg"
   xmlns:svg="http://www.w3.org/2000/svg">
  <g
     transform="translate(-42.245483,-17.420628)">
    <path
       style="fill"
       d="m 62.378301,22.783118 c -1.015053,0 -1.837915,0.822863
          -1.837915,1.837915 V 37.3261 h -9.349914 c -1.645168,5.54e-4
          -2.461112,1.996431 -1.287498,3.149344 l 8.045665,7.906864
          H 46.552608 c -1.015052,0 -1.837915,0.822863 -1.837915,1.837915
          0,1.015052 0.822863,1.837915 1.837915,1.837915 h 31.38575
          c 1.015053,0 1.837915,-0.822863 1.837915,-1.837915 0,-1.015052
          -0.822862,-1.837915 -1.837915,-1.837915 H 66.544721
          l 8.045664,-7.906864 c 1.173614,-1.152913 0.357671,-3.14879
          -1.287497,-3.149344 H 64.216216 V 24.621033 c 0,-1.015052
          -0.822863,-1.837915 -1.837915,-1.837915 z" />
  </g>
</svg>
