<?xml version="1.0" encoding="UTF-8" standalone="no"?>
<!-- Created with Inkscape (http://www.inkscape.org/) -->

<svg
   viewBox="0 0 40 40"
   version="1.1"
   xmlns="http://www.w3.org/2000/svg"
   xmlns:svg="http://www.w3.org/2000/svg">
  <g transform="translate(-42.245483,-17.420628)">
    <path
       style="fill"
       d="m 62.385373,20.768977 c -3.837682,-0.04021 -7.635001,1.237978
          -10.707019,3.701701 l -3.00403,-3.36444 -3.663573,12.887641
          13.476828,-1.896924 -3.29136,-3.686268 c 3.33832,-2.551653
          7.824756,-3.11119 11.725157,-1.364024 4.302497,1.927283
          6.992465,6.25314 6.819212,10.964391 -0.173254,4.71125
          -3.174326,8.829516 -7.60676,10.435576 -4.432434,1.60606
          -9.376248,0.367441 -12.527231,-3.139297 a 2.6351552,2.6351552
          0 0 0 -3.72122,-0.198816 2.6351552,2.6351552 0 0 0
          -0.199269,3.720767 c 4.575897,5.09253 11.805222,6.904657
          18.242059,4.572316 6.436838,-2.332341 10.82763,-8.354983
          11.079232,-15.196723 C 79.259,31.363139 75.322451,25.034864
          69.074309,22.23604 67.512274,21.536333 65.881981,21.090935
          64.237813,20.89108 63.621249,20.81613 63.002925,20.775447
          62.385373,20.768977 Z" />
  </g>
</svg>
